<svg width="12" height="12" viewBox="0 0 12 12" fill="none" xmlns="http://www.w3.org/2000/svg">
<path fill-rule="evenodd" clip-rule="evenodd" d="M11 12V4.3714e-08L12 0V12H11ZM8 9H9V8H8.5V8.5H8V9ZM9 7.5V6.5H8V7.5H9ZM9 5.5V4.5H8V5.5H9ZM9 4V3H8V3.5H8.5V4H9ZM7.5 3H6.5V4L7.5 4V3ZM5.5 3H4.5V4H5.5V3ZM4 3L3 3V4H3.5V3.5L4 3.5V3ZM3 4.5V5.5H4V4.5H3ZM3 6.5V7.5H4V6.5H3ZM3 8V9H4V8.5H3.5V8H3ZM4.5 9H5.5V8H4.5V9ZM6.5 9H7.5V8H6.5V9Z" fill="#333333"/>
<path d="M12 12H11V4.3714e-08L12 0V12Z" fill="#333333"/>
<path d="M1 12H0V4.3714e-08L1 0V12Z" fill="#333333"/>
</svg>
