<svg width="24" height="24" viewBox="0 0 24 24" fill="none" xmlns="http://www.w3.org/2000/svg">
<path fill-rule="evenodd" clip-rule="evenodd" d="M8.63296 6.81413C9.11296 6.63613 10.06 6.74513 10.31 7.28713C10.523 7.74913 10.706 8.52813 10.716 8.36213C10.74 7.99313 10.692 7.19513 10.853 6.77813C10.97 6.47413 11.2 6.18813 11.539 6.08713C11.824 6.00113 12.159 5.97113 12.455 6.03213C12.768 6.09613 13.097 6.31913 13.22 6.53113C13.582 7.15413 13.588 8.43013 13.605 8.36213C13.669 8.09013 13.675 7.13313 13.888 6.77813C14.029 6.54313 14.385 6.33313 14.575 6.29913C14.869 6.24713 15.231 6.23113 15.539 6.29113C15.788 6.34013 16.125 6.63513 16.216 6.77813C16.435 7.12213 16.558 8.09413 16.595 8.43613C16.611 8.57713 16.669 8.04313 16.888 7.70013C17.294 7.06113 18.732 6.93713 18.786 8.33913C18.812 8.99313 18.806 8.96313 18.806 9.40313C18.806 9.91913 18.794 10.2311 18.766 10.6051C18.736 11.0041 18.65 11.9091 18.525 12.3471C18.439 12.6481 18.154 13.3251 17.872 13.7311C17.872 13.7311 16.798 14.9811 16.681 15.5431C16.564 16.1061 16.603 16.1101 16.579 16.5081C16.556 16.9071 16.7 17.4311 16.7 17.4311C16.7 17.4311 15.899 17.5351 15.466 17.4651C15.075 17.4031 14.591 16.6251 14.466 16.3871C14.294 16.0591 13.927 16.1221 13.784 16.3641C13.56 16.7471 13.075 17.4341 12.734 17.4771C12.065 17.5611 10.679 17.5071 9.59396 17.4971C9.59396 17.4971 9.77896 16.4861 9.36696 16.1391C9.06196 15.8791 8.53696 15.3551 8.22296 15.0791L7.39096 14.1581C7.10796 13.7981 6.38896 13.2291 6.14796 12.1731C5.93496 11.2371 5.95596 10.7781 6.18496 10.4031C6.41696 10.0221 6.85496 9.81413 7.03896 9.77813C7.24696 9.73613 7.73096 9.73913 7.91396 9.84013C8.13696 9.96313 8.22696 9.99913 8.40196 10.2311C8.63196 10.5381 8.71396 10.6871 8.61496 10.3521C8.53896 10.0901 8.29296 9.75713 8.18096 9.38213C8.07196 9.02113 7.77996 8.43913 7.80096 7.85613C7.80896 7.63513 7.90396 7.08513 8.63296 6.81413Z" fill="white"/>
<path fill-rule="evenodd" clip-rule="evenodd" d="M15.627 14.5117V11.0117V14.5117Z" fill="white"/>
<path fill-rule="evenodd" clip-rule="evenodd" d="M13.6099 14.5234L13.5938 11.0234L13.6099 14.5234Z" fill="white"/>
<path fill-rule="evenodd" clip-rule="evenodd" d="M11.6133 11.082L11.6347 14.582L11.6133 11.082Z" fill="white"/>
</svg>
