<svg width="25" height="24" viewBox="0 0 25 24" fill="none" xmlns="http://www.w3.org/2000/svg">
<path d="M6.344 9H8.021L6.721 15.435H4.771L3.991 11.236L3.198 15.435H1.261L0 9H1.69L2.314 13.576L3.146 9H4.875L5.642 13.55L6.344 9Z" fill="#333333"/>
<path d="M14.4944 9H16.1714L14.8714 15.435H12.9214L12.1414 11.236L11.3484 15.435H9.41139L8.15039 9H9.84039L10.4644 13.576L11.2964 9H13.0254L13.7924 13.55L14.4944 9Z" fill="#333333"/>
<path d="M22.6448 9H24.3218L23.0218 15.435H21.0718L20.2918 11.236L19.4988 15.435H17.5618L16.3008 9H17.9908L18.6148 13.576L19.4468 9H21.1758L21.9428 13.55L22.6448 9Z" fill="#333333"/>
</svg>
