<svg width="12" height="12" viewBox="0 0 12 12" fill="none" xmlns="http://www.w3.org/2000/svg">
<path d="M2.03305 1.43609C2.58305 2.90609 2.85305 4.45109 2.85305 5.99609C2.85305 7.54109 2.57805 9.08609 2.03305 10.5561C2.01305 10.6111 2.00305 10.6661 2.00305 10.7111C2.00305 10.8811 2.11805 10.9961 2.31805 10.9961L9.68805 10.9961C9.88805 10.9961 10.003 10.8811 10.003 10.7111C10.003 10.6611 9.99305 10.6111 9.97305 10.5561C9.42305 9.08609 9.14805 7.54109 9.14805 5.99609C9.14805 4.45109 9.42305 2.90609 9.96805 1.43609C9.99305 1.38109 10.003 1.32609 10.003 1.28109C10.003 1.11609 9.88805 0.996094 9.68805 0.996094L2.31305 0.996094C2.11805 0.996094 1.99805 1.11609 1.99805 1.28109C2.00305 1.33109 2.01305 1.38109 2.03305 1.43609ZM8.73305 1.99609C8.34805 3.29609 8.15305 4.63609 8.15305 5.99609C8.15305 7.35609 8.34805 8.69609 8.73305 9.99609L3.27805 9.99609C3.66305 8.69609 3.85805 7.35609 3.85805 5.99609C3.85805 4.63609 3.66305 3.29609 3.27805 1.99609L8.73305 1.99609Z" fill="#333333"/>
</svg>
