<svg width="12" height="12" viewBox="0 0 12 12" fill="none" xmlns="http://www.w3.org/2000/svg">
<path d="M10.56 2.03C9.09 2.58 7.545 2.85 6 2.85C4.455 2.85 2.91 2.575 1.44 2.03C1.385 2.01 1.33 2 1.285 2C1.115 2 1 2.115 1 2.315L1 9.685C1 9.885 1.115 10 1.285 10C1.335 10 1.385 9.99 1.44 9.97C2.91 9.42 4.455 9.145 6 9.145C7.545 9.145 9.09 9.42 10.56 9.965C10.615 9.99 10.67 10 10.715 10C10.88 10 11 9.885 11 9.685V2.31C11 2.115 10.88 1.995 10.715 1.995C10.665 2 10.615 2.01 10.56 2.03ZM10 8.73C8.7 8.345 7.36 8.15 6 8.15C4.64 8.15 3.3 8.345 2 8.73L2 3.275C3.3 3.66 4.64 3.855 6 3.855C7.36 3.855 8.7 3.66 10 3.275V8.73Z" fill="#333333"/>
</svg>
