<svg width="24" height="24" viewBox="0 0 24 24" fill="none" xmlns="http://www.w3.org/2000/svg">
<path d="M8.67969 10.7344C8.50213 8.99432 7.20597 8 5.44815 8C3.50923 8 2 9.33168 2 11.7358C2 14.1293 3.47372 15.4716 5.44815 15.4716C7.44389 15.4716 8.5483 14.1151 8.67969 12.826L6.90412 12.8153C6.77983 13.5149 6.25426 13.9304 5.48366 13.9304C4.44673 13.9304 3.79332 13.1811 3.79332 11.7358C3.79332 10.3473 4.43253 9.54119 5.49432 9.54119C6.29332 9.54119 6.81534 10.0064 6.90412 10.7344H8.67969Z" fill="#333333"/>
<path d="M13.6167 10.2798H15.2999C15.2857 8.91974 14.2026 8 12.5123 8C10.8503 8 9.65359 8.90554 9.66424 10.2585C9.66069 11.3629 10.4348 11.9844 11.6919 12.272L12.4519 12.4496C13.2509 12.6342 13.6096 12.8509 13.6167 13.2592C13.6096 13.7031 13.1941 14.0121 12.4874 14.0121C11.7097 14.0121 11.1983 13.6499 11.1593 12.9503H9.47603C9.49734 14.6513 10.6799 15.4645 12.5087 15.4645C14.3198 15.4645 15.3922 14.6442 15.3993 13.2628C15.3922 12.1016 14.6074 11.3913 13.1728 11.0753L12.5478 10.9332C11.8873 10.7912 11.4682 10.571 11.4824 10.1378C11.486 9.74006 11.8269 9.45241 12.5087 9.45241C13.1941 9.45241 13.5705 9.76136 13.6167 10.2798Z" fill="#333333"/>
<path d="M20.2182 10.2798H21.9015C21.8873 8.91974 20.8042 8 19.1138 8C17.4519 8 16.2551 8.90554 16.2658 10.2585C16.2623 11.3629 17.0364 11.9844 18.2935 12.272L19.0534 12.4496C19.8524 12.6342 20.2111 12.8509 20.2182 13.2592C20.2111 13.7031 19.7956 14.0121 19.089 14.0121C18.3113 14.0121 17.7999 13.6499 17.7608 12.9503H16.0776C16.0989 14.6513 17.2814 15.4645 19.1103 15.4645C20.9213 15.4645 21.9938 14.6442 22.0009 13.2628C21.9938 12.1016 21.209 11.3913 19.7743 11.0753L19.1493 10.9332C18.4888 10.7912 18.0698 10.571 18.084 10.1378C18.0875 9.74006 18.4284 9.45241 19.1103 9.45241C19.7956 9.45241 20.1721 9.76136 20.2182 10.2798Z" fill="#333333"/>
</svg>
