<svg width="14" height="12" viewBox="0 0 14 12" fill="none" xmlns="http://www.w3.org/2000/svg">
<path fill-rule="evenodd" clip-rule="evenodd" d="M2.38868 6.66423C3.27145 8.10224 4.80387 9.09564 6.57558 9.23354C6.71571 9.24445 6.85733 9.25 7.00024 9.25C7.21827 9.25 7.43328 9.23708 7.64456 9.21195C9.58148 8.98156 11.2046 7.72548 11.959 6C11.1763 4.20969 9.45829 2.92472 7.42495 2.76646C7.28481 2.75555 7.14318 2.75 7.00024 2.75C6.7953 2.75 6.59302 2.76142 6.394 2.78367C4.69943 2.97308 3.24114 3.94712 2.38868 5.33577C2.25845 5.54794 2.14237 5.76979 2.04175 6C2.14237 6.23021 2.25845 6.45206 2.38868 6.66423ZM13.0378 6L12.9656 6.18332C12.9399 6.24839 12.9133 6.31294 12.8856 6.37696C11.9778 8.47606 9.98361 9.99727 7.60928 10.2214C7.40883 10.2403 7.20568 10.25 7.00024 10.25C4.36131 10.25 2.09916 8.65297 1.11488 6.37632C1.0873 6.31252 1.06072 6.24817 1.03516 6.18332L0.962891 6L1.03516 5.81668C1.06072 5.75183 1.0873 5.68748 1.11488 5.62368C1.17603 5.48224 1.24211 5.34342 1.31291 5.20745C2.37906 3.15933 4.51603 1.75609 6.98417 1.75002C6.98953 1.75001 6.99488 1.75 7.00024 1.75C7.02449 1.75 7.0487 1.75013 7.07288 1.7504C9.68063 1.7794 11.9102 3.36766 12.8856 5.62306C12.9133 5.68707 12.9399 5.75162 12.9656 5.81668L13.0378 6ZM7.00024 7C7.55248 7 8.00024 6.55227 8.00024 6C8.00024 5.44773 7.55248 5 7.00024 5C6.44801 5 6.00024 5.44773 6.00024 6C6.00024 6.55227 6.44801 7 7.00024 7ZM9.00024 6C9.00024 7.10458 8.10474 8 7.00024 8C5.89575 8 5.00024 7.10458 5.00024 6C5.00024 4.89542 5.89575 4 7.00024 4C8.10474 4 9.00024 4.89542 9.00024 6Z" fill="#333333"/>
</svg>
