<svg width="13" height="12" viewBox="0 0 13 12" fill="none" xmlns="http://www.w3.org/2000/svg">
<path fill-rule="evenodd" clip-rule="evenodd" d="M1.56714 0.882812L0.820068 1.62988L2.21118 3.021C1.26086 3.73096 0.513794 4.69775 0.0722656 5.81836L0 6.00146L0.0722656 6.18457C1.00977 8.56348 3.32446 10.2515 6.03735 10.2515C7.03137 10.2515 7.97192 10.0249 8.81091 9.62061L10.2395 11.0493L10.9866 10.3022L9.74963 9.06543C10.7543 8.34912 11.5436 7.34961 12.0027 6.18457L12.075 6.00146L12.0027 5.81836C11.0652 3.43945 8.75049 1.75146 6.03735 1.75146C4.99097 1.75146 4.00366 2.00293 3.13196 2.44775L1.56714 0.882812ZM2.927 3.73682C2.12207 4.30469 1.47852 5.0874 1.07886 6.00146C1.91528 7.91504 3.82056 9.25146 6.03735 9.25146C6.74976 9.25146 7.42993 9.11377 8.05286 8.86279L6.96436 7.77393C6.68726 7.91895 6.37183 8.00146 6.03735 8.00146C4.93286 8.00146 4.03735 7.10596 4.03735 6.00146C4.03735 5.66699 4.11938 5.35156 4.26465 5.07471L2.927 3.73682ZM4.98486 4.30029L3.88293 3.19873C4.54309 2.91113 5.27161 2.75146 6.03735 2.75146C8.25415 2.75146 10.1594 4.08789 10.9961 6.00146C10.5771 6.95947 9.89038 7.77295 9.03076 8.34619L7.73828 7.0542C7.92786 6.74854 8.03735 6.3877 8.03735 6.00146C8.03735 4.89697 7.14185 4.00146 6.03735 4.00146C5.65125 4.00146 5.29065 4.11084 4.98486 4.30029Z" fill="#333333"/>
</svg>
