<svg width="13" height="12" viewBox="0 0 13 12" fill="none" xmlns="http://www.w3.org/2000/svg">
<path fill-rule="evenodd" clip-rule="evenodd" d="M2.5 12H1.5V11.5H2.5V12ZM0.5 12H0V11.5H0.5V12ZM0 9.5V10.5H0.5V9.5H0ZM0 8.5H0.5L0.500001 7.5H9.53674e-07L0 8.5ZM9.53674e-07 6.5H0.500001V5.5H9.53674e-07V6.5ZM9.53674e-07 4.5H0.500001V3.5H9.53674e-07V4.5ZM9.53674e-07 2.5H0.500001V1.5H9.53674e-07V2.5ZM1.90735e-06 0.5H0.500002V0H1.90735e-06V0.5ZM1.5 0V0.5H2.5V0H1.5ZM3.5 0V0.5L4.5 0.500001V9.53674e-07L3.5 0ZM5.5 9.53674e-07V0.500001H6.5V9.53674e-07H5.5ZM7.5 9.53674e-07V0.500001H8.5V9.53674e-07H7.5ZM9.5 9.53674e-07V0.500001L10.5 0.500002V1.90735e-06L9.5 9.53674e-07ZM11.5 1.90735e-06V0.500002H12V1.90735e-06H11.5ZM12 1.5H11.5V2.5H12V1.5ZM12 9.5H11.5V10.5H12V9.5ZM12 11.5H11.5V12H12V11.5ZM10.5 12V11.5H9.5V12H10.5ZM8.5 12V11.5H7.5V12H8.5ZM6.5 12V11.5H5.5V12H6.5ZM4.5 12V11.5L3.5 11.5V12L4.5 12Z" fill="#333333"/>
<path fill-rule="evenodd" clip-rule="evenodd" d="M4 3H3V9H4L4 3ZM2 2V10H5L5 2L2 2Z" fill="#333333"/>
<path fill-rule="evenodd" clip-rule="evenodd" d="M8 3H7V9H8L8 3ZM6 2L6 10H9V2L6 2Z" fill="#333333"/>
<path fill-rule="evenodd" clip-rule="evenodd" d="M12 3H11V9H12V3ZM10 2V10H13V2L10 2Z" fill="#333333"/>
</svg>
