<svg width="12" height="12" viewBox="0 0 12 12" fill="none" xmlns="http://www.w3.org/2000/svg">
<path fill-rule="evenodd" clip-rule="evenodd" d="M2.5 12H1.5V11.5H2.5V12ZM0.5 12H0L0 11.5H0.5V12ZM0 9.5L0 10.5H0.5V9.5H0ZM0 8.5H0.5L0.500001 7.5H9.53674e-07L0 8.5ZM9.53674e-07 6.5H0.500001L0.500001 5.5H9.53674e-07L9.53674e-07 6.5ZM9.53674e-07 4.5H0.500001L0.500001 3.5H9.53674e-07L9.53674e-07 4.5ZM9.53674e-07 2.5H0.500001L0.500001 1.5H9.53674e-07L9.53674e-07 2.5ZM1.90735e-06 0.499998H0.500002L0.500002 -1.90735e-06H1.90735e-06L1.90735e-06 0.499998ZM1.5 -1.90735e-06V0.499998H2.5V-1.90735e-06H1.5ZM3.5 -1.90735e-06V0.499998L4.5 0.499999V-9.53674e-07L3.5 -1.90735e-06ZM5.5 -9.53674e-07V0.499999H6.5V-9.53674e-07H5.5ZM7.5 -9.53674e-07V0.499999H8.5V-9.53674e-07H7.5ZM9.5 -9.53674e-07V0.499999L10.5 0.5V0L9.5 -9.53674e-07ZM11.5 0V0.5H12V0H11.5ZM12 1.5H11.5V2.5H12V1.5ZM12 3.5H11.5V4.5H12V3.5ZM12 5.5H11.5V6.5H12V5.5ZM12 7.5H11.5V8.5H12V7.5ZM12 9.5H11.5V10.5H12V9.5ZM12 11.5H11.5V12H12V11.5ZM10.5 12V11.5H9.5V12H10.5ZM8.5 12V11.5H7.5V12H8.5ZM6.5 12V11.5H5.5V12H6.5ZM4.5 12V11.5L3.5 11.5V12L4.5 12Z" fill="#333333"/>
<path fill-rule="evenodd" clip-rule="evenodd" d="M9 3H8V9H9V3ZM7 2L7 10H10V2H7Z" fill="#333333"/>
<path fill-rule="evenodd" clip-rule="evenodd" d="M4 3H3L3 9H4L4 3ZM2 2L2 10H5L5 2H2Z" fill="#333333"/>
</svg>
