<svg width="12" height="12" viewBox="0 0 12 12" fill="none" xmlns="http://www.w3.org/2000/svg">
<path d="M5 1L5 11H6L6 1L5 1ZM10 1L8 1L8 11H10L10 1Z" fill="#333333"/>
<path d="M2 3.5L2 2.5H3L3 3.5L2 3.5Z" fill="#333333"/>
<path d="M2 6.5L2 5.5H3L3 6.5H2Z" fill="#333333"/>
<path d="M2 8V7H2.5H3V8H2Z" fill="#333333"/>
<path d="M2 9.5V8.5H3V9.5H2Z" fill="#333333"/>
<path d="M2 3.5L2 2.5H3L3 3.5L2 3.5Z" fill="#333333"/>
<path d="M2 6.5L2 5.5H3L3 6.5H2Z" fill="#333333"/>
<path d="M2 8V7H2.5H3V8H2Z" fill="#333333"/>
<path d="M2 9.5V8.5H3V9.5H2Z" fill="#333333"/>
<path d="M2 11V10H3V11H2Z" fill="#333333"/>
<path d="M2 11V10H3V11H2Z" fill="#333333"/>
<path d="M2 2V1L3 1V2H2Z" fill="#333333"/>
<path d="M2 5V4H3V5H2Z" fill="#333333"/>
<path d="M2 5V4H3V5H2Z" fill="#333333"/>
</svg>
