<svg width="12" height="12" viewBox="0 0 12 12" fill="none" xmlns="http://www.w3.org/2000/svg">
<path fill-rule="evenodd" clip-rule="evenodd" d="M12.0009 1L0.000915766 1L0.000915527 1.04908e-06L12.0009 0V1ZM9.00092 4V3H8.00092V3.5H8.50092V4H9.00092ZM7.50092 3H6.50092V4H7.50092V3ZM5.50092 3L4.50092 3V4H5.50092V3ZM4.00092 3H3.00092V4H3.50092V3.5H4.00092V3ZM3.00092 4.5V5.5L4.00092 5.5V4.5L3.00092 4.5ZM3.00092 6.5L3.00092 7.5L4.00092 7.5V6.5L3.00092 6.5ZM3.00092 8V9H4.00092V8.5H3.50092V8H3.00092ZM4.50092 9H5.50092L5.50092 8H4.50092L4.50092 9ZM6.50092 9L7.50092 9V8L6.50092 8V9ZM8.00092 9H9.00092V8H8.50092V8.5H8.00092V9ZM9.00092 7.5V6.5H8.00092V7.5H9.00092ZM9.00092 5.5L9.00092 4.5H8.00092L8.00092 5.5H9.00092Z" fill="#333333"/>
<path d="M12.0009 0V1L0.000915766 1L0.000915527 1.04908e-06L12.0009 0Z" fill="#333333"/>
<path d="M12 11V12L8.74206e-08 12L0 11L12 11Z" fill="#333333"/>
</svg>
