<svg width="24" height="24" viewBox="0 0 24 24" fill="none" xmlns="http://www.w3.org/2000/svg">
<path d="M12.1816 2.18359C6.65997 2.18359 2.18164 6.655 2.18164 12.17C2.18164 16.5823 5.04664 20.3256 9.02081 21.6463C9.51997 21.7386 9.68164 21.429 9.68164 21.1661V19.3069C6.89997 19.9111 6.32081 18.1285 6.32081 18.1285C5.86581 16.9743 5.20997 16.6672 5.20997 16.6672C4.30247 16.0472 5.27914 16.0605 5.27914 16.0605C6.28331 16.1304 6.81164 17.09 6.81164 17.09C7.70331 18.6162 9.15081 18.1751 9.72164 17.9197C9.81081 17.2747 10.07 16.8336 10.3566 16.5848C8.13581 16.331 5.80081 15.4747 5.80081 11.649C5.80081 10.558 6.19164 9.66757 6.83081 8.96852C6.72747 8.71636 6.38497 7.70025 6.92831 6.32545C6.92831 6.32545 7.76831 6.05748 9.67914 7.34906C10.4766 7.12769 11.3316 7.01701 12.1816 7.01285C13.0316 7.01701 13.8875 7.12769 14.6866 7.34906C16.5958 6.05748 17.4341 6.32545 17.4341 6.32545C17.9783 7.70108 17.6358 8.7172 17.5325 8.96852C18.1741 9.66757 18.5616 10.5589 18.5616 11.649C18.5616 15.4846 16.2225 16.3293 13.9958 16.5765C14.3541 16.8861 14.6816 17.4936 14.6816 18.4256V21.1661C14.6816 21.4315 14.8416 21.7436 15.3491 21.6454C19.32 20.3231 22.1816 16.5807 22.1816 12.17C22.1816 6.655 17.7041 2.18359 12.1816 2.18359Z" fill="#333333"/>
</svg>
