<svg width="24" height="24" viewBox="0 0 24 24" fill="none" xmlns="http://www.w3.org/2000/svg">
<path d="M19.8421 10.5C19.9442 11.0349 20 11.595 20 12.1799C20 16.75 16.8779 20 12.1634 20C7.65322 20 4 16.4199 4 12C4 7.58008 7.65322 4 12.1634 4C14.3677 4 16.2093 4.79493 17.6228 6.08495L15.3214 8.34008V8.33493C14.4644 7.53486 13.3777 7.12495 12.1634 7.12495C9.46962 7.12495 7.28077 9.35493 7.28077 11.9951C7.28077 14.6347 9.46959 16.8701 12.1634 16.8701C14.6074 16.8701 16.2705 15.5 16.6129 13.6201H12.1634V10.5H19.8421Z" fill="#333333"/>
</svg>
