<svg width="24" height="24" viewBox="0 0 24 24" fill="none" xmlns="http://www.w3.org/2000/svg">
<path d="M8.65206 8.10695H10.6065V13.4492C10.6065 13.9447 10.4855 14.3868 10.2436 14.7754C10.0053 15.164 9.67025 15.4652 9.2384 15.6791C8.81028 15.893 8.3319 16 7.80326 16C6.91724 16 6.22852 15.7861 5.73711 15.3583C5.2457 14.9305 5 14.3244 5 13.5401H6.96564C6.96564 13.8966 7.02892 14.1551 7.1555 14.3155C7.2858 14.4759 7.50172 14.5561 7.80326 14.5561C8.07503 14.5561 8.28351 14.4599 8.42869 14.2674C8.57761 14.0713 8.65206 13.7986 8.65206 13.4492V8.10695Z" fill="#333333"/>
<path d="M16.0399 13.8235C16.0399 13.549 15.9376 13.3351 15.7328 13.1818C15.5318 13.0285 15.1763 12.8699 14.6662 12.7059C14.1562 12.5419 13.7393 12.3832 13.4154 12.2299C12.3618 11.7344 11.8351 11.0535 11.8351 10.1872C11.8351 9.75579 11.9653 9.37611 12.2259 9.04813C12.4903 8.71658 12.8625 8.45989 13.3428 8.27807C13.823 8.09269 14.3628 8 14.9622 8C15.5467 8 16.0697 8.09982 16.5314 8.29947C16.9967 8.49911 17.3578 8.78431 17.6147 9.15508C17.8716 9.52228 18 9.94296 18 10.4171H16.0455C16.0455 10.0998 15.9432 9.85383 15.7384 9.67914C15.5374 9.50446 15.2637 9.41711 14.9175 9.41711C14.5676 9.41711 14.2902 9.49198 14.0855 9.64171C13.8845 9.78788 13.7839 9.97504 13.7839 10.2032C13.7839 10.4029 13.8956 10.5847 14.119 10.7487C14.3424 10.9091 14.7351 11.0766 15.2973 11.2513C15.8594 11.4225 16.321 11.6078 16.6821 11.8075C17.5607 12.2923 18 12.9608 18 13.8128C18 14.4938 17.732 15.0285 17.1959 15.4171C16.6598 15.8057 15.9245 16 14.9901 16C14.3312 16 13.7337 15.8877 13.1976 15.6631C12.6652 15.4349 12.2632 15.1248 11.9914 14.7326C11.7234 14.3369 11.5893 13.8824 11.5893 13.369H13.555C13.555 13.7861 13.6667 14.0945 13.89 14.2941C14.1171 14.4902 14.4838 14.5882 14.9901 14.5882C15.314 14.5882 15.569 14.5223 15.7552 14.3904C15.945 14.2549 16.0399 14.066 16.0399 13.8235Z" fill="#333333"/>
</svg>
