<svg width="24" height="24" viewBox="0 0 24 24" fill="none" xmlns="http://www.w3.org/2000/svg">
<path fill-rule="evenodd" clip-rule="evenodd" d="M12 4.5C13.45 3.4 15.55 3 17.5 3C19.37 3 21.51 3.38 23 4.5V19.1C23 19.36 22.66 19.76 22.25 19.55C20.85 18.8 19.15 18.5 17.5 18.5C15.8 18.5 13.35 19.15 12 20C10.55 18.9 8.45 18.5 6.5 18.5C5.05 18.5 3.1 18.95 1.75 19.6C1.75 19.6 1.74325 19.6011 1.73471 19.6028C1.62686 19.6248 1 19.7523 1 19.15V4.5C2.45 3.4 4.55 3 6.5 3C8.45 3 10.55 3.4 12 4.5ZM3 17C4.1 16.65 5.3 16.5 6.5 16.5C7.76761 16.5 9.66537 16.9498 11 17.4861V5.98606C9.66537 5.44982 7.76761 5 6.5 5C5.3 5 4.1 5.15 3 5.5V17ZM17.5 16.5C18.7 16.5 19.9 16.65 21 17V5.5C19.9 5.15 18.7 5 17.5 5C16.2324 5 14.3346 5.44982 13 5.98606V17.4861C14.3346 16.9498 16.2324 16.5 17.5 16.5Z" fill="#333333"/>
</svg>
