<svg width="24" height="24" viewBox="0 0 24 24" fill="none" xmlns="http://www.w3.org/2000/svg">
<path d="M16.9441 8.63457L16.9361 8.63113C16.9315 8.62941 16.9269 8.62769 16.9229 8.62367C16.9163 8.6166 16.9114 8.60811 16.9086 8.59886C16.9058 8.58961 16.9052 8.57984 16.9068 8.57031L17.3508 5.85869L19.433 7.93917L17.2675 8.85949C17.2615 8.86191 17.255 8.86309 17.2486 8.86293H17.2399C17.2371 8.86121 17.2342 8.85892 17.2285 8.85318C17.1479 8.76355 17.0515 8.68945 16.9441 8.63457ZM19.9643 8.46933L22.1907 10.6932C22.6531 11.1557 22.8845 11.3864 22.969 11.6537C22.9816 11.6933 22.992 11.7329 23 11.7737L17.6794 9.52276C17.6765 9.52158 17.6736 9.52044 17.6707 9.51932C17.6495 9.51071 17.6248 9.50096 17.6248 9.47916C17.6248 9.45735 17.6501 9.44703 17.6713 9.43842L17.6782 9.43555L19.9643 8.46933ZM22.9092 12.4874C22.7944 12.7032 22.5704 12.9269 22.1912 13.3062L19.6811 15.813L16.4346 15.1376L16.4174 15.1342C16.3887 15.1296 16.3582 15.1244 16.3582 15.0986C16.3459 14.9648 16.3061 14.835 16.2414 14.7173C16.1767 14.5995 16.0884 14.4963 15.982 14.4141C15.9688 14.4009 15.9722 14.3803 15.9763 14.3613C15.9763 14.3585 15.9763 14.3556 15.9774 14.3533L16.588 10.6089L16.5903 10.5963C16.5937 10.5676 16.5989 10.5343 16.6248 10.5343C16.7556 10.5181 16.8819 10.4759 16.9963 10.4104C17.1107 10.3449 17.2109 10.2573 17.2911 10.1528C17.2962 10.147 17.2997 10.1407 17.3066 10.1373C17.325 10.1287 17.3468 10.1373 17.3657 10.1453L22.9087 12.4874H22.9092ZM19.1039 16.3896L14.9762 20.5127L15.6828 16.175L15.6839 16.1693C15.6845 16.1635 15.6856 16.1578 15.6873 16.1526C15.6931 16.1389 15.708 16.1331 15.7224 16.1274L15.7293 16.1245C15.884 16.0586 16.0208 15.9569 16.1285 15.8279C16.1423 15.8118 16.1589 15.7963 16.1802 15.7935C16.1857 15.7926 16.1913 15.7926 16.1968 15.7935L19.1033 16.3902L19.1039 16.3896ZM14.1026 21.3854L13.6373 21.8501L8.49359 14.4244C8.49173 14.4217 8.48982 14.4191 8.48785 14.4164C8.4798 14.4055 8.47119 14.3946 8.47291 14.382C8.47349 14.3728 8.47923 14.3648 8.48555 14.3579L8.49129 14.3504C8.5068 14.3275 8.52001 14.3045 8.53437 14.2799L8.54586 14.2598L8.54758 14.2581C8.55563 14.2443 8.56309 14.2311 8.57688 14.2236C8.58894 14.2179 8.6056 14.2202 8.61881 14.2231L14.3174 15.397C14.3333 15.3995 14.3484 15.406 14.3611 15.4159C14.3685 15.4234 14.3703 15.4314 14.372 15.4406C14.4117 15.5908 14.4857 15.7298 14.5881 15.8468C14.6906 15.9637 14.8187 16.0555 14.9625 16.1148C14.9785 16.1228 14.9716 16.1406 14.9642 16.1595C14.9605 16.1678 14.9576 16.1765 14.9556 16.1853C14.8838 16.6214 14.268 20.3727 14.1026 21.3854ZM13.1307 22.3556C12.7878 22.6947 12.5856 22.8743 12.357 22.9466C12.1316 23.0178 11.8897 23.0178 11.6643 22.9466C11.3966 22.8617 11.1651 22.631 10.7027 22.1686L5.53717 17.0087L6.88643 14.9185C6.89274 14.9081 6.89906 14.899 6.9094 14.8915C6.92376 14.8812 6.94444 14.8858 6.96167 14.8915C7.27136 14.9848 7.60387 14.968 7.90253 14.8439C7.91804 14.8381 7.93355 14.8341 7.94562 14.845C7.95165 14.8505 7.95704 14.8567 7.9617 14.8634L13.1307 22.3562V22.3556ZM5.03916 16.5112L3.85418 15.3276L6.19428 14.3304C6.20026 14.3277 6.20671 14.3264 6.21323 14.3263C6.23276 14.3263 6.24425 14.3458 6.25459 14.3636C6.27811 14.3998 6.30302 14.435 6.32926 14.4692L6.33673 14.4784C6.34362 14.4881 6.33903 14.4979 6.33213 14.5071L5.03974 16.5112H5.03916ZM3.32976 14.8037L1.83058 13.3062C1.57555 13.0514 1.39059 12.8667 1.26193 12.7077L5.82034 13.6522C5.82607 13.6532 5.83182 13.6542 5.83758 13.655C5.86572 13.6596 5.89674 13.6648 5.89674 13.6912C5.89674 13.7199 5.86285 13.7331 5.83413 13.744L5.82092 13.7497L3.32976 14.8037ZM1 11.9377C1.00519 11.8413 1.02256 11.7459 1.0517 11.6537C1.13671 11.3864 1.36761 11.1557 1.83058 10.6932L3.74907 8.77687C4.63239 10.0574 5.51812 11.3364 6.40623 12.6136C6.42174 12.6343 6.43897 12.6573 6.42116 12.6745C6.3373 12.7668 6.25344 12.8678 6.19428 12.9774C6.18786 12.9915 6.17798 13.0037 6.16556 13.013C6.15809 13.0176 6.15005 13.0159 6.14143 13.0141H6.14028L1 11.9372V11.9377ZM4.26258 8.26392L6.8422 5.68714C7.08459 5.79328 7.96687 6.16566 8.75609 6.49844C9.35346 6.7509 9.89799 6.98041 10.0692 7.055C10.0864 7.06188 10.1019 7.06877 10.1094 7.08598C10.114 7.09631 10.1117 7.1095 10.1094 7.1204C10.0685 7.30641 10.0746 7.49963 10.127 7.6827C10.1795 7.86578 10.2766 8.03297 10.4098 8.16925C10.427 8.18646 10.4098 8.21113 10.3948 8.23236L10.3868 8.24441L7.76755 12.2969C7.76066 12.3084 7.75434 12.3182 7.74285 12.3256C7.72907 12.3342 7.70954 12.3302 7.69345 12.3262C7.59158 12.2995 7.48686 12.2853 7.38156 12.2837C7.28736 12.2837 7.18511 12.3009 7.08172 12.3199H7.08115C7.06966 12.3216 7.05932 12.3239 7.05013 12.317C7.03998 12.3087 7.03125 12.2988 7.02428 12.2877L4.26258 8.26392ZM7.36318 5.16673L10.7027 1.83085C11.1651 1.36897 11.3966 1.13774 11.6643 1.0534C11.8897 0.9822 12.1316 0.9822 12.357 1.0534C12.6247 1.13774 12.8561 1.36897 13.3185 1.83085L14.0423 2.5538L11.6671 6.2282C11.6613 6.23889 11.6532 6.24827 11.6436 6.25574C11.6292 6.26549 11.6091 6.26148 11.5919 6.25574C11.4046 6.19897 11.2063 6.18864 11.0142 6.22563C10.822 6.26262 10.6418 6.34582 10.489 6.46803C10.4735 6.4841 10.4506 6.47492 10.431 6.46631C10.1209 6.33148 7.70839 5.31304 7.36318 5.16673ZM14.5466 3.05756L16.7396 5.2482L16.2112 8.51753V8.52613C16.2107 8.53358 16.2092 8.54093 16.2066 8.54794C16.2009 8.55941 16.1894 8.56171 16.1779 8.56515C16.0649 8.59933 15.9585 8.65229 15.8631 8.72179C15.859 8.7247 15.8552 8.72797 15.8516 8.73154C15.8453 8.73843 15.839 8.74474 15.8286 8.74588C15.8202 8.74614 15.8118 8.74478 15.8039 8.74187L12.4621 7.32352L12.4558 7.32065C12.4345 7.31204 12.4093 7.30171 12.4093 7.27991C12.3896 7.09389 12.3288 6.91456 12.2312 6.75492C12.2151 6.72852 12.1973 6.70098 12.2111 6.67401L14.5466 3.05756ZM12.2881 7.9954L15.4208 9.3208C15.4381 9.32883 15.457 9.33629 15.4645 9.35408C15.4675 9.36477 15.4675 9.37608 15.4645 9.38678C15.4553 9.43268 15.4472 9.48489 15.4472 9.53768V9.62547C15.4472 9.64727 15.4248 9.65645 15.4042 9.66506L15.3978 9.66735C14.9016 9.87907 8.43041 12.6354 8.42064 12.6354C8.41088 12.6354 8.40054 12.6354 8.39077 12.6257C8.37354 12.6085 8.39077 12.5844 8.40628 12.5626C8.40902 12.5588 8.41171 12.555 8.41432 12.5511L10.9888 8.56916L10.9934 8.56228C11.0083 8.53818 11.0255 8.51121 11.0531 8.51121L11.079 8.51523C11.1375 8.52326 11.1892 8.53072 11.2415 8.53072C11.6321 8.53072 11.994 8.34081 12.2122 8.01605C12.2174 8.00738 12.224 7.99963 12.2318 7.9931C12.2473 7.98163 12.2703 7.98737 12.2881 7.9954ZM8.70037 13.2654L15.754 10.2606C15.754 10.2606 15.7643 10.2606 15.7741 10.2704C15.8126 10.3088 15.8453 10.3346 15.8769 10.3587L15.8924 10.3685C15.9068 10.3765 15.9211 10.3857 15.9223 10.4006C15.9223 10.4064 15.9223 10.4098 15.9211 10.415L15.3169 14.1227L15.3146 14.1376C15.3105 14.1663 15.3065 14.199 15.2795 14.199C15.1184 14.2098 14.9624 14.2598 14.825 14.3444C14.6876 14.4291 14.5729 14.546 14.4909 14.6849L14.488 14.6895C14.48 14.7027 14.4725 14.7154 14.4593 14.7222C14.4472 14.728 14.4317 14.7257 14.4191 14.7228L8.794 13.5638C8.78826 13.5627 8.70669 13.266 8.70037 13.2654Z" fill="#333333"/>
</svg>
