<svg width="12" height="12" viewBox="0 0 12 12" fill="none" xmlns="http://www.w3.org/2000/svg">
<path fill-rule="evenodd" clip-rule="evenodd" d="M12 10.5V9.5H11V10.5H12ZM11.5 11H12V12H11V11.5H11.5V11ZM10.5 12H9.5V11H10.5V12ZM12 1.04908e-06V1L11.5 1V0.500001L11 0.500001V9.61656e-07L12 1.04908e-06ZM0.500001 1H9.61651e-07L1.04907e-06 0L1 8.74279e-08L1 0.5H0.500001L0.500001 1ZM0 12L8.74229e-08 11H0.5V11.5H1V12H0ZM7.5 11H8.5V12H7.5V11ZM5.5 11H6.5V12H5.5V11ZM3.5 11H4.5V12H3.5V11ZM1.5 11H2.5V12H1.5L1.5 11ZM1 10.5H1.31134e-07L2.18557e-07 9.5H1L1 10.5ZM1 8.5H3.0598e-07L3.93402e-07 7.5H1V8.5ZM1 6.5H4.80825e-07L5.68248e-07 5.5H1L1 6.5ZM1 4.5H6.55671e-07L7.43094e-07 3.5H1V4.5ZM1 2.5H8.30516e-07L9.17939e-07 1.5L1 1.5L1 2.5ZM4.5 1H3.5V3.05983e-07L4.5 3.93404e-07V1ZM6.5 1L5.5 1V4.80832e-07L6.5 5.68252e-07V1ZM1.5 1L1.5 1.31135e-07L2.5 2.18562e-07V1L1.5 1ZM7.5 1V6.55673e-07L8.5 7.43094e-07V1H7.5ZM9.5 1V8.30521e-07L10.5 9.17942e-07V1L9.5 1ZM11 2.5V1.5L12 1.5V2.5H11ZM11 4.5V3.5H12V4.5H11ZM11 6.5V5.5H12V6.5H11ZM11 8.5V7.5H12V8.5H11ZM9 8V9L3 9V8L9 8Z" fill="#333333"/>
</svg>
