<svg width="12" height="12" viewBox="0 0 12 12" fill="none" xmlns="http://www.w3.org/2000/svg">
<g clip-path="url(#clip0)">
<path d="M3.78167 11.0072C4.04799 11.0785 4.32181 10.9203 4.39308 10.6534C4.46435 10.3871 4.30618 10.1132 4.03924 10.042C2.94458 9.74878 2.07312 9.03984 1.54802 8.13027C1.02352 7.22191 0.845966 6.1123 1.13916 5.01761C1.43236 3.92296 2.1413 3.05149 3.05087 2.52639C3.95924 2.00189 5.06884 1.82434 6.16353 2.11753C7.25819 2.41073 8.12965 3.11967 8.65475 4.02924C9.17925 4.93761 9.3568 6.04721 9.06361 7.1419C8.99234 7.40823 9.1505 7.68204 9.41744 7.75331C9.68377 7.82458 9.95759 7.66641 10.0289 7.39947C10.3933 6.03974 10.1714 4.66003 9.51809 3.52837C8.86543 2.39807 7.78132 1.51664 6.42096 1.15142C5.06122 0.78696 3.68151 1.00889 2.54986 1.66218C1.41956 2.31485 0.538125 3.39896 0.172908 4.75932C-0.191556 6.11905 0.0303717 7.49876 0.683667 8.63042C1.33634 9.76072 2.42131 10.642 3.78167 11.0072Z" fill="#333333"/>
<path d="M11.8181 6.05025C12.0306 5.8752 12.0613 5.56137 11.8862 5.34882C11.7112 5.13627 11.3974 5.10564 11.1848 5.28068L9.61439 6.57289L8.06974 5.27842C7.89469 5.06586 7.58086 5.03523 7.36831 5.21027C7.15576 5.38531 7.12512 5.69915 7.30017 5.91171L9.13427 7.55818C9.1424 7.57005 9.15115 7.58131 9.1599 7.59256C9.33558 7.80574 9.65065 7.83637 9.86383 7.6607L9.86258 7.65945L11.8181 6.05025Z" fill="#333333"/>
</g>
<defs>
<clipPath id="clip0">
<rect width="12" height="12" fill="white"/>
</clipPath>
</defs>
</svg>
