<svg width="24" height="24" viewBox="0 0 24 24" fill="none" xmlns="http://www.w3.org/2000/svg">
<path d="M19.1401 12.9384C19.1801 12.6384 19.2001 12.3284 19.2001 11.9984C19.2001 11.6784 19.1801 11.3584 19.1301 11.0584L21.1601 9.47844C21.3401 9.33844 21.3901 9.06844 21.2801 8.86844L19.3601 5.54844C19.2401 5.32844 18.9901 5.25844 18.7701 5.32844L16.3801 6.28844C15.8801 5.90844 15.3501 5.58844 14.7601 5.34844L14.4001 2.80844C14.3601 2.56844 14.1601 2.39844 13.9201 2.39844H10.0801C9.84011 2.39844 9.65011 2.56844 9.61011 2.80844L9.25011 5.34844C8.66011 5.58844 8.12011 5.91844 7.63011 6.28844L5.24011 5.32844C5.02011 5.24844 4.77011 5.32844 4.65011 5.54844L2.74011 8.86844C2.62011 9.07844 2.66011 9.33844 2.86011 9.47844L4.89011 11.0584C4.84011 11.3584 4.80011 11.6884 4.80011 11.9984C4.80011 12.3084 4.82011 12.6384 4.87011 12.9384L2.84011 14.5184C2.66011 14.6584 2.61011 14.9284 2.72011 15.1284L4.64011 18.4484C4.76011 18.6684 5.01011 18.7384 5.23011 18.6684L7.62011 17.7084C8.12011 18.0884 8.65011 18.4084 9.24011 18.6484L9.60011 21.1884C9.65011 21.4284 9.84011 21.5984 10.0801 21.5984H13.9201C14.1601 21.5984 14.3601 21.4284 14.3901 21.1884L14.7501 18.6484C15.3401 18.4084 15.8801 18.0884 16.3701 17.7084L18.7601 18.6684C18.9801 18.7484 19.2301 18.6684 19.3501 18.4484L21.2701 15.1284C21.3901 14.9084 21.3401 14.6584 21.1501 14.5184L19.1401 12.9384ZM12.0001 15.5984C10.0201 15.5984 8.40011 13.9784 8.40011 11.9984C8.40011 10.0184 10.0201 8.39844 12.0001 8.39844C13.9801 8.39844 15.6001 10.0184 15.6001 11.9984C15.6001 13.9784 13.9801 15.5984 12.0001 15.5984Z" fill="#333333"/>
</svg>
