<svg width="12" height="12" viewBox="0 0 12 12" fill="none" xmlns="http://www.w3.org/2000/svg">
<path d="M7.83454 12L11.5061 12C11.7745 12 11.9921 11.7829 11.9926 11.5145L12 7.84366L11.027 7.84119L11.0201 11.0271H7.83395L7.83454 12Z" fill="#333333"/>
<path d="M7.53531 6.85318L6.84698 7.54098L11.1618 11.8575L11.8501 11.1697L7.53531 6.85318Z" fill="#333333"/>
<path d="M0 4.1579H0.973036L0.973035 0.972981L4.15863 0.972981V0L0.486586 3.21001e-07C0.217669 3.4451e-07 6.32614e-05 0.218088 6.32849e-05 0.486497L0 4.1579Z" fill="#333333"/>
<path d="M4.69272 5.3787L5.38056 4.6909L0.830407 0.143533L0.14257 0.831331L4.69272 5.3787Z" fill="#333333"/>
</svg>
