<svg width="12" height="12" viewBox="0 0 12 12" fill="none" xmlns="http://www.w3.org/2000/svg">
<path d="M2.73672 6.32631C2.15462 6.93943 1.96032 7.80004 2.14425 8.57451C2.15462 8.59594 2.15462 8.61738 2.16459 8.63923C2.24638 9.14477 2.11353 9.68267 1.74567 10.0701C1.53103 10.2962 1.26572 10.4357 1 10.5005C2.59352 11.372 4.6055 11.1031 5.95359 9.69362C6.83212 8.76826 6.83212 7.25166 5.95359 6.32626C5.05511 5.4009 3.6252 5.40095 2.73672 6.32631Z" fill="#333333"/>
<path d="M10.9075 1.09767C10.795 0.979155 10.6115 0.968655 10.4786 1.06531L5.93317 4.70162C5.81069 4.79827 5.80031 4.9815 5.91282 5.08908L7.10771 6.34765C7.22023 6.46616 7.3834 6.45523 7.47557 6.32622L10.9378 1.53891C11.0299 1.40991 11.0196 1.21618 10.9075 1.09767Z" fill="#333333"/>
</svg>
