<svg width="12" height="12" viewBox="0 0 12 12" fill="none" xmlns="http://www.w3.org/2000/svg">
<g clip-path="url(#clip0_3013_427)">
<path d="M3.78167 11.0082C4.04799 11.0795 4.32181 10.9213 4.39308 10.6544C4.46435 10.388 4.30618 10.1142 4.03924 10.043C2.94458 9.74976 2.07312 9.04082 1.54802 8.13125C1.02352 7.22288 0.845966 6.11328 1.13916 5.01859C1.43236 3.92393 2.1413 3.05247 3.05087 2.52737C3.95924 2.00287 5.06884 1.82531 6.16353 2.11851C7.25819 2.41171 8.12965 3.12065 8.65475 4.03022C9.17925 4.93858 9.3568 6.04819 9.06361 7.14288C8.99234 7.4092 9.1505 7.68302 9.41744 7.75429C9.68377 7.82556 9.95759 7.66739 10.0289 7.40045C10.3933 6.04071 10.1714 4.66101 9.51809 3.52935C8.86543 2.39905 7.78132 1.51762 6.42096 1.1524C5.06122 0.787936 3.68151 1.00986 2.54986 1.66316C1.41956 2.31583 0.538125 3.39994 0.172908 4.7603C-0.191556 6.12003 0.0303717 7.49974 0.683667 8.6314C1.33634 9.7617 2.42131 10.643 3.78167 11.0082Z" fill="black"/>
<path d="M11.8181 6.05123C12.0306 5.87618 12.0613 5.56235 11.8862 5.3498C11.7112 5.13725 11.3974 5.10661 11.1848 5.28165L9.61439 6.57387L8.06974 5.27939C7.89469 5.06684 7.58086 5.03621 7.36831 5.21125C7.15576 5.38629 7.12512 5.70013 7.30017 5.91268L9.13427 7.55915C9.1424 7.57103 9.15115 7.58228 9.1599 7.59354C9.33558 7.80671 9.65065 7.83734 9.86383 7.66168L9.86258 7.66043L11.8181 6.05123Z" fill="black"/>
</g>
<defs>
<clipPath id="clip0_3013_427">
<rect width="12" height="12" fill="white"/>
</clipPath>
</defs>
</svg>
