<svg width="12" height="12" viewBox="0 0 12 12" fill="none" xmlns="http://www.w3.org/2000/svg">
<path fill-rule="evenodd" clip-rule="evenodd" d="M-4.80825e-07 11L12 11L12 12L-5.24537e-07 12L-4.80825e-07 11ZM3 8L3 9L4 9L4 8.5L3.5 8.5L3.5 8L3 8ZM4.5 9L5.5 9L5.5 8L4.5 8L4.5 9ZM6.5 9L7.5 9L7.5 8L6.5 8L6.5 9ZM8 9L9 9L9 8L8.5 8L8.5 8.5L8 8.5L8 9ZM9 7.5L9 6.5L8 6.5L8 7.5L9 7.5ZM9 5.5L9 4.5L8 4.5L8 5.5L9 5.5ZM9 4L9 3L8 3L8 3.5L8.5 3.5L8.5 4L9 4ZM7.5 3L6.5 3L6.5 4L7.5 4L7.5 3ZM5.5 3L4.5 3L4.5 4L5.5 4L5.5 3ZM4 3L3 3L3 4L3.5 4L3.5 3.5L4 3.5L4 3ZM3 4.5L3 5.5L4 5.5L4 4.5L3 4.5ZM3 6.5L3 7.5L4 7.5L4 6.5L3 6.5Z" fill="black"/>
<path d="M-5.24537e-07 12L-4.80825e-07 11L12 11L12 12L-5.24537e-07 12Z" fill="black"/>
<path d="M-4.37114e-08 0.999999L0 -5.24537e-07L12 0L12 1L-4.37114e-08 0.999999Z" fill="black"/>
</svg>
