<svg width="106" height="21" viewBox="0 0 106 21" fill="none" xmlns="http://www.w3.org/2000/svg">
<path d="M95.4618 4.79736H91.5369L89.9603 10.9698C89.3564 13.2509 88.8197 15.6326 88.283 18.0815H88.2159C87.7127 15.6662 87.1424 13.3851 86.438 10.9027L84.7607 4.79736H81.0371L85.8341 20.5638H90.1951L91.8724 13.687C92.3755 11.6071 92.8787 9.42667 93.2813 7.27974H93.3484C93.7509 9.46021 94.187 11.5736 94.7238 13.687L96.5017 20.5638H100.896L105.66 4.79736H102.07L100.594 10.9027C99.9569 13.4186 99.3866 15.6326 98.8499 18.0815H98.7828C98.246 15.6326 97.7093 13.2509 97.0719 10.9698L95.4618 4.79736Z" fill="#008000"/>
<path d="M73.2242 20.9997C78.2225 20.9997 81.2751 17.8128 81.2751 12.6468C81.2751 7.44719 78.0547 4.39453 73.2242 4.39453C68.36 4.39453 65.1396 7.44719 65.1396 12.6468C65.1396 17.8128 68.1588 20.9997 73.2242 20.9997ZM73.2242 7.68201C76.0085 7.68201 77.6857 9.59411 77.6857 12.6132C77.6857 15.6659 76.0755 17.6786 73.1906 17.6786C70.3392 17.6786 68.7626 15.6659 68.7626 12.6132C68.7626 9.59411 70.4063 7.68201 73.2242 7.68201Z" fill="#FFFF00"/>
<path d="M56.6612 17.7457C54.0447 17.7457 52.4345 15.8 52.4345 12.7809V12.5125C52.4345 9.3928 54.0447 7.64842 56.6612 7.64842C59.4455 7.64842 60.7202 9.45989 60.7202 12.6132C60.7202 15.8336 59.3784 17.7457 56.6612 17.7457ZM52.4345 0H48.8115V20.5635H52.4345V16.0684H52.5015C53.206 19.2888 54.9504 20.9996 58.1037 20.9996C62.0956 20.9996 64.3096 17.8463 64.3096 12.6132C64.3096 7.51424 62.1963 4.39449 58.1372 4.39449C55.051 4.39449 53.2396 6.07177 52.5015 9.25861H52.4345V0Z" fill="#FFA500"/>
<path d="M35.9569 11.2379C35.9569 8.99029 37.3658 7.64846 39.6805 7.64846C42.1293 7.64846 42.968 9.32575 42.968 11.2379V20.5636H46.5909V10.2986C46.5909 6.87691 45.1484 4.39453 41.3578 4.39453C38.7077 4.39453 36.6949 5.7699 35.9905 9.12447H35.9569V4.79708H32.334V20.5636H35.9569V11.2379Z" fill="#FF0000"/>
<path d="M29.9659 2.68366V0H26.041V2.68366H29.9659ZM29.8317 20.5635V4.79704H26.2087V20.5635H29.8317Z" fill="#FFC0CB"/>
<path d="M15.9248 17.9473C13.8785 17.9473 13.174 16.9409 13.174 15.8339C13.174 14.7604 14.1133 14.1231 15.8577 14.1231H20.0173V14.6263C20.0173 16.5384 18.4071 17.9473 15.9248 17.9473ZM20.0173 20.5638H23.6067V10.7685C23.6067 6.74302 21.6611 4.46191 17.0989 4.46191C12.6373 4.46191 10.5574 6.64238 10.0878 10.1647L13.543 10.6343C13.912 8.35321 15.019 7.48103 16.9647 7.48103C19.1451 7.48103 20.0173 8.65512 20.0173 10.802V11.4394H15.3209C11.3625 11.4394 9.61816 13.5193 9.61816 16.4042C9.61816 19.4233 11.6645 20.8993 14.5829 20.8993C17.3001 20.8993 19.2122 19.4233 19.9502 16.6055H20.0173V20.5638Z" fill="#800080"/>
<path d="M3.62294 20.3241V12.3402C3.62294 9.58947 4.72994 8.61665 7.54778 8.61665H9.09088V4.55762H8.18515C5.80341 4.55762 4.39449 5.63108 3.69003 9.72365H3.62294V4.55762H0V20.3241H3.62294Z" fill="#0000FF"/>
</svg>
