<svg width="12" height="12" viewBox="0 0 12 12" fill="none" xmlns="http://www.w3.org/2000/svg">
<path d="M11.0001 11L1.00003 10.9999L1 1.0001L6.00009 1.00017V0.000187665L1.11111 0.000114159C0.494445 0.000114159 0.5 0.000100316 0 0.000188456L3.0756e-05 10.8888C3.0756e-05 11.4999 3.0756e-05 11.4999 6.1512e-05 11.9999L10.889 12C11.5001 12 11.5001 12 12.0001 12L12.0002 6.00001H11.0002L11.0001 11ZM8.00015 7.4327e-05V1.00006L10.1057 0.999986L4.6446 6.57222L5.42793 7.35556L11.0002 1.89444V3.99999H12.0002V0L8.00015 7.4327e-05Z" fill="black"/>
</svg>
